<?xml version="1.0" encoding="UTF-8"?><svg id="Ebene_2" xmlns="http://www.w3.org/2000/svg" viewBox="0 0 214.83 213.05"><defs><style>.cls-1{fill:#676869;}</style></defs><g id="Ebene_1-2"><polygon class="cls-1" points="9.65 209.67 3.37 209.67 3.37 3.37 211.45 3.37 211.45 209.67 205.82 209.67 205.82 213.05 214.83 213.05 214.83 0 0 0 0 213.05 9.65 213.05 9.65 209.67"/><polyline class="cls-1" points="105.82 1.92 105.82 14.57 109.2 14.57 109.2 1.92"/><polyline class="cls-1" points="105.82 195.28 105.82 210.75 109.2 210.75 109.2 195.28"/><polyline class="cls-1" points="99.78 212.43 115.25 212.43 115.25 209.06 99.78 209.06"/><path class="cls-1" d="M92.05,88.54s-.45,29.45-.45,49.64v1.05c0,8.02.1,14.85.1,20.38.01,8.39-.24,13.85-1.27,15.8-1.44,2.8-5.01,4.98-10.18,6.43-5.16,1.45-11.9,2.19-19.63,2.18h-.5c-8.41-.03-15.35-.99-20.47-2.54-5.13-1.55-8.42-3.72-9.54-6.06-.56-1.14-.94-3.51-1.16-6.61-.22-3.1-.3-6.93-.3-11.07,0-4.43.09-9.21.18-13.8.04-2.19.06-5,.06-8.2,0-17.79-.56-47.43-.56-47.43h-.56s.03,1.86.09,4.92c.16,9.17.47,29.17.47,42.51,0,3.19-.02,6-.06,8.19-.09,4.59-.18,9.37-.18,13.81,0,4.14.08,7.99.3,11.11.23,3.13.59,5.51,1.22,6.81,1.27,2.59,4.69,4.77,9.88,6.36,5.2,1.58,12.19,2.54,20.64,2.57h.5c7.76,0,14.54-.73,19.78-2.21,5.23-1.47,8.95-3.68,10.53-6.71,1.14-2.23,1.33-7.63,1.33-16.06,0-5.54-.09-12.37-.1-20.38v-1.05c0-10.1.11-22.5.22-32.39.05-4.94.11-9.25.15-12.33.04-3.08.07-4.91.07-4.92h-.56Z"/><path class="cls-1" d="M98.07,90.87l.16.23c.3-.22.36-.57.37-.94-.02-1.39-1.05-3.8-2.32-4.77-.67-.49-1.65-1.05-2.59-1.5-.95-.44-1.81-.78-2.38-.79l-.48.16c-.17.19-.2.4-.25.68-.04.28-.06.62-.06.99,0,.67.07,1.44.2,2.09.07.32.15.61.26.85.11.24.23.45.47.56.33.14,1.58.84,2.89,1.48,1.33.65,2.68,1.27,3.46,1.28l.44-.11-.16-.23-.16-.23h-.02s-.1.02-.1.02c-.51.01-1.93-.58-3.21-1.22-1.31-.64-2.53-1.32-2.92-1.5l-.19-.27c-.25-.56-.41-1.76-.4-2.71,0-.35.02-.67.05-.91l.06-.28.03-.07v-.02s0-.01,0-.01l.02.02h0s-.02-.02-.02-.02l.02.02-.05-.05.04.07h.02s-.05-.07-.05-.07l.04.07h.1c.35-.02,1.24.29,2.14.72.91.43,1.87.98,2.5,1.44,1.05.74,2.11,3.19,2.09,4.31,0,.31-.08.47-.12.48l.16.23Z"/><path class="cls-1" d="M22.35,90.55l.16-.23s-.13-.17-.12-.48c-.02-1.13,1.04-3.57,2.09-4.31.63-.46,1.59-1.01,2.5-1.44.9-.43,1.79-.74,2.14-.73h.09s0,.01,0,.01l.04-.07-.05.05h.02s.04-.05.04-.05l-.05.05.02-.02h-.02s0,.02,0,.02l.02-.02h-.02s.08.2.11.43c.03.23.05.53.05.86,0,.64-.06,1.38-.18,1.97-.06.3-.14.56-.22.74l-.19.28c-.39.17-1.61.85-2.92,1.5-1.29.64-2.7,1.24-3.21,1.22h-.1s-.02-.01-.02-.01l-.16.23-.16.23.44.11c.78-.01,2.13-.63,3.46-1.28,1.31-.65,2.57-1.34,2.89-1.49.24-.11.36-.32.47-.56.31-.72.45-1.93.45-2.94,0-.37-.02-.71-.06-.99-.05-.28-.09-.49-.25-.68l-.48-.16c-.57,0-1.43.34-2.38.79-.94.45-1.92,1.01-2.59,1.5-1.28.97-2.3,3.38-2.32,4.77,0,.37.07.72.37.94l.16-.23Z"/><path class="cls-1" d="M92.64,83.59v-1.44l-.97-4.66-.28.06h.28s.19-8.92.19-17.41c0-6.18-.1-12.11-.44-14.27-.81-5.02-2.36-9.91-6.6-12.59-2.15-1.35-6.66-2.43-11.52-3.2-4.86-.77-10.04-1.21-13.45-1.21h-.02c-4.65,0-10.31.26-15.33,1.23-5.02.98-9.42,2.65-11.54,5.6-4.09,5.71-4.25,9.22-4.27,13.08-.01,1.29-.02,4.91-.02,9.16,0,8.52.02,19.57.02,19.57h.28l-.28-.04-.71,4.72-.13,1.06.56.07.13-1.06-.28-.03.28.04.71-4.74v-.02s0-2.76,0-6.59c0-3.83,0-8.72,0-12.98s0-7.88.02-9.16c.04-3.85.15-7.11,4.17-12.76,1.93-2.73,6.22-4.41,11.19-5.37,4.97-.96,10.6-1.22,15.23-1.22h.02c3.36,0,8.53.44,13.36,1.21,4.82.76,9.33,1.87,11.31,3.12,4.01,2.53,5.54,7.22,6.34,12.2.33,2.05.44,8.01.43,14.18,0,4.24-.05,8.59-.09,11.88-.05,3.29-.09,5.51-.09,5.52v.03l.97,4.63v1.38h.56Z"/><path class="cls-1" d="M85.61,174.32l-.04-.02c-.44-.28-4.77-3.41-4.77-18.39v-.35c.07-16.32,2.52-55.68,2.76-57.74.13-1.04.8-6.39,1.45-11.48.65-5.08,1.26-9.9,1.26-9.91l.02-.18-.16-.09s-8.43-4.92-27.29-4.92c-16.62,0-24.54,4.91-24.58,4.94l-.16.1.03.18s.64,4.34,1.29,9.19c.65,4.85,1.32,10.23,1.38,12.27.11,4.14,2.78,52.24,2.78,62.25v.06c0,4.9-1.06,8.58-2.1,11.03-.52,1.22-1.05,2.14-1.44,2.75-.19.3-.36.53-.47.68l-.17.22.43.36s4.3-5.07,4.31-15.04v-.07c0-10.05-2.67-58.14-2.78-62.26-.12-4.19-2.68-21.52-2.68-21.53l-.28.04.15.24s.11-.07.36-.2c1.7-.92,9.49-4.65,23.93-4.65,9.38,0,16.14,1.22,20.55,2.43,2.21.61,3.82,1.21,4.89,1.67.53.23.93.41,1.19.54.26.13.38.2.38.2l.14-.24-.28-.04s-2.46,19.3-2.71,21.39c-.25,2.13-2.69,41.44-2.76,57.81v.35c0,16.08,4.99,18.85,5.11,18.91l.26-.5Z"/><path class="cls-1" d="M83.33,97.51s-11.58-2.27-22.63-2.38c-.22,0-.44,0-.66,0-10.89,0-23.02,2.5-23.03,2.5l.11.55s3.02-.62,7.4-1.24c4.38-.62,10.11-1.24,15.52-1.24.22,0,.43,0,.65,0,5.49.05,11.12.65,15.38,1.22,4.26.58,7.14,1.15,7.14,1.15l.11-.55Z"/><path class="cls-1" d="M91.77,50.5s-3.24-9.32-10.43-13.83c-3.64-2.26-12.44-3.3-21.2-3.31-4.45,0-8.88.28-12.58.83-3.7.56-6.67,1.36-8.25,2.49-5.73,4.13-10.57,12.66-10.59,12.68l.49.28s.3-.53.84-1.38c1.62-2.57,5.41-8.11,9.59-11.12,1.41-1.03,4.34-1.85,8-2.39,3.66-.54,8.07-.82,12.5-.82,8.7,0,17.52,1.09,20.9,3.22,3.48,2.18,6.04,5.56,7.72,8.41.84,1.42,1.46,2.71,1.87,3.64.41.93.61,1.49.61,1.49l.53-.18Z"/><polyline class="cls-1" points="79.81 35.98 78.12 31.01 77.59 31.19 79.28 36.17"/><polyline class="cls-1" points="41.69 35.94 42.7 30.7 42.15 30.6 41.14 35.83"/><path class="cls-1" d="M91.6,167.03s-.26.5-.76,1.28c-1.49,2.34-5.1,7.08-9.62,7.8-2.89.47-11.54.68-20.26.68-9.83,0-19.84-.26-21.77-.65-3.31-.65-5.9-2.88-7.67-4.97-.88-1.04-1.56-2.05-2.01-2.79-.45-.74-.68-1.21-.68-1.21l-.51.25s3.77,7.88,10.76,9.28c2.08.4,12,.65,21.87.65,8.74,0,17.36-.2,20.35-.68,6.46-1.09,10.77-9.36,10.79-9.37l-.5-.26Z"/><polyline class="cls-1" points="81.18 164.69 39.57 164.69 39.57 165.25 81.18 165.25"/><path class="cls-1" d="M78.51,66.7s.08-1.71.08-4.21c0-3.3-.14-7.98-.79-11.94-1.18-7.23-3.25-12.61-3.25-12.62l-.52.2s.51,1.33,1.17,3.56c.66,2.23,1.47,5.36,2.05,8.95.64,3.91.78,8.57.78,11.85,0,2.49-.08,4.18-.08,4.18l.56.03Z"/><path class="cls-1" d="M42.7,66.67s-.08-1.7-.08-4.18c0-3.28.14-7.94.78-11.85.59-3.58,1.39-6.71,2.05-8.95.66-2.23,1.17-3.55,1.17-3.56l-.52-.2s-2.07,5.39-3.25,12.62c-.65,3.96-.79,8.64-.79,11.94,0,2.5.08,4.21.08,4.21l.56-.03Z"/></g></svg>