<svg xmlns="http://www.w3.org/2000/svg" viewBox="0 0 279.49 280.6"><g data-name="Ebene 2"><g data-name="Ebene 1"><path fill="none" stroke="#676869" stroke-miterlimit="10" stroke-width=".3" d="M148.34 7.85V.15H18.44v7.7M279.34 7.85V.15H149.45v7.7M7.85 18.82H.15v261.63h7.7"/><path fill="#676869" fill-rule="evenodd" opacity=".3" d="M21.4 22.7l-2.96-3.88v261.63l2.96-2.58V22.7M156.47 280.45h-4.25v-2.58h4.25v2.58M145.2 280.45h-4.07v-2.58h4.07v2.58M149.26 280.45h2.96v-21.8h-2.96v21.8M148.34 280.45h-3.14v-21.8h3.14v21.8"/><path fill="#676869" fill-rule="evenodd" opacity=".3" d="M18.44 280.45h7.21v-2.58H21.4l-2.96 2.58M279.16 18.82l-3.15 3.88v255.17h-4.06v2.58h7.21V18.82M152.22 22.7h123.79l3.15-3.88h-129.9l2.96 3.88"/><path fill="#676869" fill-rule="evenodd" opacity=".3" d="M149.26 45.05V18.82l2.96 3.88v22.35h-2.96M145.2 22.7H21.4l-2.96-3.88h129.9l-3.14 3.88"/><path fill="#676869" fill-rule="evenodd" opacity=".3" d="M145.2 45.05h3.14V18.82l-3.14 3.88v22.35"/><path fill="none" stroke="#676869" stroke-miterlimit="10" stroke-width=".3" d="M25.65 280.45h115.67M21.4 22.7v13.67h.18"/><path fill="none" stroke="#676869" stroke-miterlimit="10" stroke-width=".3" d="M21.4 35.45v242.42h.18M145.2 258.65v19.22h.18M21.4 22.7h123.98M135.59 22.7h9.79M21.4 277.87h4.43M18.44 280.45h7.39M148.34 280.45h-7.21.19M141.13 276.02v4.43h.19M25.65 276.02v4.43h.18M25.65 276.02h115.67M141.13 277.87h4.25M140.58 265.12h.55m-11.64 0H135m-16.63 0H124m-16.63 0h5.54m-16.63 0h5.54m-16.62 0h5.54m-16.63 0h5.49m-16.63 0h5.55m-16.63 0h5.54m-16.63 0h5.54m-16.63 0h5.55m-16.63 0h5.54M140.39 34.15h.74m-11.82 0h5.54m-16.63 0h5.54m-16.63 0h5.55m-16.63 0h5.54m-16.59 0h5.5m-16.63 0h5.55m-16.63 0h5.54m-16.63 0h5.54m-16.62 0h5.54m-16.63 0h5.54m-16.63 0H24M21.4 277.87h4.25M25.65 277.87v2.58M25.65 280.45h-7.21M18.44 280.45V18.82M18.44 18.82h129.9M145.2 22.7v17.92M145.2 277.87h-4.07M141.13 277.87v2.58M141.13 280.45h7.21M148.34 40.62v-21.8"/><path fill="#000001" d="M148.34 18.82h.18V19h-.18z"/><path fill="#000001" d="M148.34 18.82h.18V19h-.18z"/><path fill="#000001" d="M148.34 18.82h.18V19h-.18z"/><path fill="none" stroke="#676869" stroke-miterlimit="10" stroke-width=".3" d="M148.34 103.44v177.01h.18M148.34 280.45V103.44"/><path fill="#000001" d="M148.34 18.82h.18V19h-.18z"/><path fill="none" stroke="#676869" stroke-miterlimit="10" stroke-width=".3" d="M148.34 18.82v21.8h.18M148.34 104.55V18.82M145.2 40.62V22.7M127.46 18.82H61.49h.19M127.46 280.45H61.49h.19"/><path fill="#676869" fill-rule="evenodd" opacity=".3" d="M21.4 277.87h4.25-4.25"/><path fill="none" stroke="#676869" stroke-miterlimit="10" stroke-width=".3" d="M21.4 277.87h4.25-4.25"/><path fill="#000001" d="M145.2 277.87h.18v.18h-.18z"/><path fill="none" stroke="#676869" stroke-miterlimit="10" stroke-width=".3" d="M149.26 18.82v261.63h.19M156.47 280.45h115.66M152.22 22.7v17.92h.18M152.22 258.65v19.22h.18M276.01 103.44v174.43h.19M152.22 22.7H276.2M266.41 22.7h9.79M152.22 277.87h4.43M149.26 280.45h7.39M279.16 280.45h-7.21.18M271.95 276.02v4.43h.18M156.47 276.02v4.43h.18M156.47 276.02h115.66M271.95 277.87h4.25M278.42 265.12h.74m-11.83 0h5.54m-16.63 0h5.55m-16.63 0h5.54m-16.63 0h5.54m-16.62 0h5.54m-16.63 0h5.54m-16.63 0h5.55m-16.63 0h5.54m-16.63 0h5.54m-16.63 0h5.55m-16.63 0H162M278.42 34.15h.74m-11.83 0h5.54m-16.63 0h5.55m-16.63 0h5.54m-16.63 0h5.54m-16.62 0h5.54m-16.63 0h5.54m-16.63 0h5.55m-16.63 0h5.54m-16.63 0h5.54m-16.63 0h5.55m-16.63 0H162M152.22 277.87h4.25M156.47 277.87v2.58M156.47 280.45h-7.21M149.26 280.45V18.82M149.26 18.82h129.9M276.01 22.7v17.92M276.01 277.87h-4.06M271.95 277.87v2.58M271.95 280.45h7.21M279.16 40.62v-21.8"/><path fill="#000001" d="M279.16 18.82h.18V19h-.18z"/><path fill="#000001" d="M279.16 18.82h.18V19h-.18z"/><path fill="#000001" d="M279.16 18.82h.18V19h-.18z"/><path fill="none" stroke="#676869" stroke-miterlimit="10" stroke-width=".3" d="M276.01 103.44v174.43M279.16 103.44v177.01h.18M279.16 280.45V103.44"/><path fill="#000001" d="M279.16 18.82h.18V19h-.18z"/><path fill="none" stroke="#676869" stroke-miterlimit="10" stroke-width=".3" d="M279.16 18.82v21.8h.18M279.16 104.55V18.82M276.01 103.44V22.7M258.28 18.82h-65.97.19M258.28 280.45h-65.97.19"/><path fill="#676869" fill-rule="evenodd" opacity=".3" d="M152.22 277.87h4.25-4.25"/><path fill="none" stroke="#676869" stroke-miterlimit="10" stroke-width=".3" d="M152.22 277.87h4.25-4.25"/><path fill="#000001" d="M276.01 277.87h.18v.18h-.18z"/><path d="M156.47 255.88v5.54m0-16.63v5.55m0-16.63v5.54m0-16.63v5.54m0-16.63v5.55m0-16.63V206m0-16.63v5.54m0-16.62v5.54m0-16.63v5.54m0-16.63v5.55m0-16.63v5.54m0-16.63v5.54m0-16.63v5.55m0-16.63v5.54m0-16.63v5.54m0-16.63v5.55m0-16.63V84m0-16.63V73m0-16.63v5.54m0-16.63v5.54m0-16.63v5.51M141.13 255.88v5.54m0-16.63v5.55m0-16.63v5.54m0-16.63v5.54m0-16.63v5.55m0-16.63V206m0-16.63v5.54m0-16.62v5.54m0-16.63v5.54m0-16.63v5.55m0-16.63v5.54m0-16.63v5.54m0-16.63v5.55m0-16.63v5.54m0-16.63v5.54m0-16.63v5.55m0-16.63V84m0-16.63V73m0-16.63v5.54m0-16.63v5.54m0-16.63v5.51M152.22 258.65h-7.02M152.22 45.05h-7.02M152.22 45.05h-2.96M145.2 40.62v4.43M152.22 40.62v4.43" fill="none" stroke="#676869" stroke-miterlimit="10" stroke-width=".3"/></g></g></svg>