<?xml version="1.0" encoding="UTF-8"?><svg id="Ebene_2" xmlns="http://www.w3.org/2000/svg" viewBox="0 0 116.72 248.87"><defs><style>.cls-1{fill:#676869;}</style></defs><g id="Ebene_1-2"><polygon class="cls-1" points="107.9 248.87 99.34 248.87 99.34 245.52 104.56 245.52 104.56 41.03 3.34 41.03 3.34 245.52 9.72 245.52 9.72 248.87 0 248.87 0 37.69 107.9 37.69 107.9 248.87"/><path class="cls-1" d="M114.77,247.75h-6.68v-1.11h6.68v1.11ZM116.72,244.13h-1.11v-6.68h1.11v6.68ZM116.72,233h-1.11v-6.68h1.11v6.68ZM116.72,221.86h-1.11v-6.68h1.11v6.68ZM116.72,210.73h-1.11v-6.68h1.11v6.68ZM116.72,199.59h-1.11v-6.68h1.11v6.68ZM116.72,188.46h-1.11v-6.68h1.11v6.68ZM116.72,177.32h-1.11v-6.68h1.11v6.68ZM116.72,166.19h-1.11v-6.68h1.11v6.68ZM116.72,155.05h-1.11v-6.68h1.11v6.68ZM116.72,143.92h-1.11v-6.68h1.11v6.68ZM116.72,132.78h-1.11v-6.68h1.11v6.68ZM116.72,121.65h-1.11v-6.68h1.11v6.68ZM116.72,110.51h-1.11v-6.68h1.11v6.68ZM116.72,99.38h-1.11v-6.68h1.11v6.68ZM116.72,88.24h-1.11v-6.68h1.11v6.68ZM116.72,77.11h-1.11v-6.68h1.11v6.68ZM116.72,65.97h-1.11v-6.68h1.11v6.68ZM116.72,54.83h-1.11v-6.68h1.11v6.68ZM116.72,43.7h-1.11v-6.68h1.11v6.68ZM2.23,39.37h-1.11s.05-6.69.05-6.69h1.11s-.05,6.69-.05,6.69ZM116.72,32.56h-1.11v-6.68h1.11v6.68ZM2.32,28.23h-1.11s.05-6.69.05-6.69h1.11s-.05,6.69-.05,6.69ZM116.72,21.43h-1.11v-6.68h1.11v6.68ZM2.4,17.1h-1.11s.05-6.69.05-6.69h1.11s-.05,6.69-.05,6.69ZM116.72,10.29h-1.11V3.61h1.11v6.68ZM2.49,5.96h-1.11s.04-5.41.04-5.41c0-.31.25-.55.56-.55h1.28s0,1.12,0,1.12h-.73s-.04,4.85-.04,4.85ZM114.61,1.26h-6.68s0-1.12,0-1.12h6.68s0,1.12,0,1.12ZM103.47,1.25h-6.68s0-1.12,0-1.12h6.68s0,1.12,0,1.12ZM92.34,1.23h-6.68s0-1.12,0-1.12h6.68s0,1.12,0,1.12ZM81.2,1.22h-6.68s0-1.12,0-1.12h6.68s0,1.12,0,1.12ZM70.07,1.2h-6.68s0-1.12,0-1.12h6.68s0,1.12,0,1.12ZM58.93,1.19h-6.68s0-1.12,0-1.12h6.68s0,1.12,0,1.12ZM47.8,1.17h-6.68s0-1.12,0-1.12h6.68s0,1.12,0,1.12ZM36.66,1.16h-6.68s0-1.12,0-1.12h6.68s0,1.12,0,1.12ZM25.53,1.14h-6.68s0-1.12,0-1.12h6.68s0,1.12,0,1.12ZM14.39,1.13h-6.68s0-1.12,0-1.12h6.68s0,1.12,0,1.12Z"/><path class="cls-1" d="M55.7,220.56h-.52c-15.78-.06-27.64-3.53-30.21-8.83-1.86-3.83-1.57-19.12-1.33-31.41.26-13.28-.4-50.27-.48-54.63-3.04,1.59-4.93,2.42-5.52,2.01h0c-.23-.16-.36-.46-.36-.9-.02-1.34,1.06-3.85,2.3-4.76.7-.51,2.37-1.49,3.7-1.97l.1-.87.7-4.68c0-.2-.04-24.63,0-28.41.03-3.65.06-7.1,4.23-12.94,1.72-2.41,5.05-4,9.09-5.02v-.04s.09.02.09.02c5.3-1.34,11.79-1.71,17.41-1.71h.03c6.28,0,20.43,1.66,24.72,4.37,4.46,2.81,5.83,8.13,6.53,12.46.14.9.25,2.47.31,4.46.02.06.03.09.04.1h-.03c.3,8.94-.05,25.92-.07,26.8l.95,4.52v1.3c1.31.49,2.92,1.43,3.6,1.93,1.24.91,2.32,3.42,2.3,4.76,0,.43-.13.73-.36.89h0c-.61.41-2.5-.42-5.57-2.03-.06,4.03-.45,31.3-.44,49.67,0,4.21.03,8.08.06,11.61.1,13.53.16,21.69-1.28,24.47-2.91,5.62-13.83,8.83-29.98,8.83ZM24.31,204.65c.22,3.17.58,5.62,1.17,6.83,2.48,5.11,14.14,8.46,29.71,8.52h.52c15.94,0,26.67-3.1,29.48-8.53.62-1.2.95-3.62,1.11-7.12-1.34,2.19-5.09,7.53-10.15,8.36-5.89.96-37.85.81-41.8.03-5.31-1.05-8.73-5.88-10.05-8.09ZM31.35,211.05c.95.52,1.98.93,3.1,1.15,3.44.68,35.23,1.01,41.6-.03,1.34-.22,2.59-.79,3.73-1.54-.84-.68-2.91-2.94-4-9.21h-40.77c-.87,5.53-2.99,8.72-3.67,9.63ZM24.23,203.36c.26.51,2.59,4.95,6.64,7.41.73-.99,3.98-5.82,3.99-14.34,0-6.84-1.26-31.79-2.1-48.31-.36-7.04-.62-12.13-.65-13.37-.11-4.04-2.62-21.08-2.64-21.25l-.03-.18.16-.1c.08-.05,8.05-4.88,24.33-4.88,18.48,0,26.93,4.83,27.02,4.88l.16.09-.02.18c-.02.19-2.44,19.13-2.68,21.17-.22,1.82-2.66,40.81-2.73,57.16-.07,14.21,3.83,17.88,4.62,18.47,3.67-2.65,6.04-7.06,6.07-7.12h0c.14-4.08.1-9.45.05-15.9-.03-3.53-.05-7.41-.06-11.61-.01-18.88.4-47.17.44-49.96-.28-.14-.49-.25-.6-.3-.34-.15-.58-.65-.75-1.54-.19-1.01-.3-3.14.14-3.59.21-.21.67-.18,1.24-.02v-1.06l-.95-4.53c0-.27.36-17.81.06-26.84-.49-1.29-3.72-9.27-10.03-13.23-6.76-4.23-35.11-4.24-40.99,0-5.23,3.77-9.83,11.54-10.28,12.32-.03,5.53,0,27.44,0,27.67l-.78,5.32c.51-.13.92-.14,1.11.05.45.45.33,2.58.14,3.6-.16.88-.41,1.37-.75,1.53-.12.05-.35.17-.65.33.05,2.62.76,41.27.49,54.92-.15,7.7-.32,16.58.02,23.03ZM35.11,200.86h40.59c-.38-2.41-.62-5.39-.61-9.05.07-15.88,2.37-53.1,2.71-56.96-1.73-.32-12.18-2.21-22.05-2.3-9.94-.11-21.34,2.07-23.09,2.41.06,1.56.3,6.47.64,13.13.84,16.52,2.11,41.49,2.1,48.34,0,1.61-.11,3.09-.3,4.43ZM30.03,113.61c.28,1.92,2.4,16.45,2.61,20.8,1.99-.39,12.8-2.41,22.47-2.41.22,0,.43,0,.65,0,9.84.09,20.24,1.95,22.11,2.3.36-2.96,2.38-18.77,2.62-20.69-1.23-.65-9.64-4.71-26.58-4.71-14.87,0-22.7,4.05-23.88,4.71ZM86.07,120.65s-.09,0-.12.02c-.16.22-.23,2.1.1,3.44.14.55.29.74.35.77.16.07.51.25.96.49,3.12,1.64,4.88,2.37,5.23,2.19.06-.04.12-.18.12-.44.02-1.17-1-3.51-2.07-4.3-1.44-1.06-3.91-2.16-4.57-2.16ZM17.95,127.24c.33.18,2.11-.55,5.24-2.19.44-.23.78-.41.94-.48.06-.03.22-.22.35-.77.33-1.34.27-3.21.08-3.45-.38-.13-3.11,1.03-4.66,2.16-1.07.78-2.09,3.12-2.07,4.3,0,.27.06.4.12.44ZM74.64,73.35c.59.24,1.11.5,1.55.77,5.24,3.28,8.39,9.25,9.67,12.1-.06-1.25-.14-2.24-.24-2.88-.68-4.21-2.01-9.38-6.28-12.07-1.25-.79-3.46-1.51-6.13-2.13l1.43,4.21ZM37.28,68.75c-3.8.99-6.91,2.5-8.52,4.75-3.94,5.53-4.09,8.86-4.12,12.31,1.4-2.28,5.44-8.43,9.95-11.68.48-.35,1.1-.67,1.84-.96l.85-4.42ZM55.07,70.81c7.26,0,14.6.76,18.9,2.29l-1.39-4.1c-5.63-1.24-13-2.01-17.66-2.01h-.03c-5.49,0-11.83.36-17.01,1.62l-.84,4.35c4.07-1.42,11.02-2.14,18.04-2.14ZM73.39,103.86l-.56-.03c0-.09.41-9.13-.69-15.88-1.15-7.01-3.17-12.33-3.19-12.38l.52-.2c.02.05,2.06,5.42,3.22,12.49,1.11,6.8.7,15.9.7,15.99ZM37.39,103.86c0-.09-.41-9.19.7-15.99,1.16-7.07,3.2-12.43,3.22-12.49l.52.2c-.02.05-2.04,5.37-3.19,12.38-1.1,6.74-.7,15.79-.69,15.88l-.56.03Z"/></g></svg>