<svg xmlns="http://www.w3.org/2000/svg" viewBox="0 0 130.22 261.92"><defs><style>.cls-1{fill:none;stroke:#676869;stroke-miterlimit:10;stroke-width:0.3px;}.cls-2{fill:#676869;fill-rule:evenodd;opacity:0.3;}.cls-3{fill:#000001;}</style></defs><g id="Ebene_2" data-name="Ebene 2"><g id="Ebene_1-2" data-name="Ebene 1"><polyline class="cls-1" points="130.04 84.77 130.04 261.77 130.22 261.77"/><line class="cls-1" x1="130.04" y1="261.77" x2="130.04" y2="84.77"/><polyline class="cls-2" points="7.36 261.77 0.15 261.77 0.15 0.15 130.04 0.15 130.04 261.77 122.83 261.77 122.83 259.19 126.9 259.19 126.9 4.21 3.11 4.21 3.11 259.19 7.36 259.19 7.36 261.77"/><line class="cls-1" x1="0.15" y1="0.15" x2="130.22" y2="0.15"/><line class="cls-1" x1="7.36" y1="261.77" x2="122.83" y2="261.77"/><polyline class="cls-1" points="3.11 4.21 3.11 259.19 3.29 259.19"/><polyline class="cls-1" points="126.9 84.77 126.9 259.19 127.08 259.19"/><line class="cls-1" x1="3.11" y1="4.21" x2="127.08" y2="4.21"/><line class="cls-1" x1="3.11" y1="259.19" x2="7.54" y2="259.19"/><line class="cls-1" x1="0.15" y1="261.77" x2="7.54" y2="261.77"/><polyline class="cls-1" points="130.04 261.77 122.83 261.77 123.02 261.77"/><line class="cls-1" x1="122.83" y1="257.52" x2="122.83" y2="261.77"/><line class="cls-1" x1="7.36" y1="257.52" x2="7.36" y2="261.77"/><line class="cls-1" x1="7.36" y1="257.52" x2="122.83" y2="257.52"/><line class="cls-1" x1="122.83" y1="259.19" x2="127.08" y2="259.19"/><path class="cls-1" d="M122.28,246.62h5.54m-16.63,0h5.55m-16.63,0h5.54m-16.63,0h5.54m-16.63,0h5.55m-16.63,0h5.54m-16.63,0h5.55m-16.63,0h5.54m-16.63,0h5.54m-16.62,0h5.54m-16.63,0H17m-16.63,0H5.88"/><path class="cls-1" d="M122.09,15.49h5.55m-16.63,0h5.54m-16.63,0h5.54m-16.62,0h5.54m-16.63,0h5.54m-16.63,0h5.55m-16.63,0h5.54m-16.63,0H50m-16.63,0H39m-16.63,0h5.54m-16.62,0h5.54m-16.63,0H5.69"/><line class="cls-1" x1="3.11" y1="259.19" x2="7.36" y2="259.19"/><line class="cls-1" x1="7.36" y1="259.19" x2="7.36" y2="261.77"/><line class="cls-1" x1="7.36" y1="261.77" x2="0.15" y2="261.77"/><line class="cls-1" x1="0.15" y1="261.77" x2="0.15" y2="0.15"/><line class="cls-1" x1="0.15" y1="0.15" x2="130.04" y2="0.15"/><line class="cls-1" x1="3.11" y1="4.21" x2="126.9" y2="4.21"/><line class="cls-1" x1="126.9" y1="4.21" x2="126.9" y2="21.95"/><line class="cls-1" x1="126.9" y1="259.19" x2="122.83" y2="259.19"/><line class="cls-1" x1="122.83" y1="259.19" x2="122.83" y2="261.77"/><line class="cls-1" x1="122.83" y1="261.77" x2="130.04" y2="261.77"/><line class="cls-1" x1="130.04" y1="21.95" x2="130.04" y2="0.15"/><line class="cls-1" x1="3.11" y1="4.21" x2="3.11" y2="259.19"/><rect class="cls-3" x="130.04" y="0.15" width="0.18" height="0.18"/><rect class="cls-3" x="130.04" y="0.15" width="0.18" height="0.18"/><rect class="cls-3" x="130.04" y="0.15" width="0.18" height="0.18"/><line class="cls-1" x1="126.9" y1="84.77" x2="126.9" y2="259.19"/><rect class="cls-3" x="130.04" y="0.15" width="0.18" height="0.18"/><polyline class="cls-1" points="130.04 0.15 130.04 21.95 130.22 21.95"/><line class="cls-1" x1="130.04" y1="85.88" x2="130.04" y2="0.15"/><line class="cls-1" x1="126.9" y1="84.77" x2="126.9" y2="4.21"/></g></g></svg>