<svg xmlns="http://www.w3.org/2000/svg" viewBox="0 0 148.66 280.59"><g data-name="Ebene 2"><g data-name="Ebene 1"><path fill="none" stroke="#676869" stroke-miterlimit="10" stroke-width=".3" d="M148.33 103.44v177h.18M148.33 280.44v-177"/><path fill="#676869" fill-rule="evenodd" opacity=".3" d="M25.65 280.44h-7.21V18.82h129.89v261.62h-7.21v-2.59h4.07V22.88H21.4v254.97h4.25v2.59"/><path fill="none" stroke="#676869" stroke-miterlimit="10" stroke-width=".3" d="M18.44 18.82h130.07M25.65 280.44h115.47M21.4 22.88v254.97h.18M145.19 103.44v174.41h.18M21.4 22.88h123.97M21.4 277.85h4.43M18.44 280.44h7.39M148.33 280.44h-7.21.19M141.12 276.19v4.25M25.65 276.19v4.25M25.65 276.19h115.47M141.12 277.85h4.25M140.57 265.29h5.54m-16.63 0H135m-16.63 0h5.54m-16.63 0h5.55m-16.63 0h5.54m-16.63 0h5.54m-16.63 0h5.58m-16.63 0h5.54m-16.63 0h5.55m-16.63 0h5.54m-16.63 0h5.54m-16.62 0h5.54M140.38 34.15h5.55m-16.63 0h5.54m-16.63 0h5.55m-16.63 0h5.54m-16.67 0h5.54m-16.54 0h5.5m-16.63 0h5.54m-16.63 0h5.55m-16.63 0h5.54m-16.63 0h5.55m-16.63 0h5.54m-16.63 0H24M21.4 277.85h4.25M25.65 277.85v2.59M25.65 280.44h-7.21M18.44 280.44V18.82M18.44 18.82h129.89M21.4 22.88h123.79M145.19 22.88v17.74M145.19 277.85h-4.07M141.12 277.85v2.59M141.12 280.44h7.21M148.33 40.62v-21.8M21.4 22.88v254.97"/><path fill="#000001" d="M148.33 18.82h.18V19h-.18z"/><path fill="#000001" d="M148.33 18.82h.18V19h-.18z"/><path fill="#000001" d="M148.33 18.82h.18V19h-.18z"/><path fill="none" stroke="#676869" stroke-miterlimit="10" stroke-width=".3" d="M145.19 103.44v174.41"/><path fill="#000001" d="M148.33 18.82h.18V19h-.18z"/><path fill="none" stroke="#676869" stroke-miterlimit="10" stroke-width=".3" d="M148.33 18.82v21.8h.18M148.33 104.55V18.82M145.19 103.44V22.88M148.51 7.85V.15H18.44v7.7M7.85 18.82H.15v261.62h7.7"/></g></g></svg>