<?xml version="1.0" encoding="UTF-8"?><svg id="Ebene_2" xmlns="http://www.w3.org/2000/svg" viewBox="0 0 224.24 213.34"><defs><style>.cls-1{opacity:.5;}.cls-1,.cls-2{fill:#676869;}</style></defs><g id="Ebene_1-2"><path class="cls-2" d="M196.22,57.9c15.11-.01,27.35-12.27,27.35-27.37v-.37s.36,0,.36,0v.68l-27.73.03v-.67l27.73-.03v.68h-.02v-.34h.34s0,.03,0,.03c0,15.48-12.54,28.03-28.02,28.05v-.68Z"/><path class="cls-2" d="M109,58.53c14.71-.87,26.36-13.08,26.36-28v-.03h-.32v-.34s-.36,0-.36,0h0s-25.68.03-25.68.03v.34h-1.69s0,.34,0,.34l27.37-.03c-.17,14.96-12.34,27.05-27.35,27.06v.34s1.66,0,1.66,0v.29Z"/><polygon class="cls-2" points="194.51 30.53 194.51 3.37 107.42 3.37 107.42 0 197.88 0 197.88 30.53 194.51 30.53"/><polygon class="cls-2" points="107.31 97.88 194.51 97.88 194.51 58.24 197.88 58.24 197.88 101.25 107.31 101.25 107.31 97.88"/><polygon class="cls-2" points="105.62 30.53 107.31 30.53 107.31 30.19 109 30.19 109 3.37 107.42 3.37 107.42 1.69 107.31 1.69 107.31 3.4 105.62 3.4 105.62 30.53"/><rect class="cls-2" x="107.31" y="30.19" width="1.69" height=".34"/><rect class="cls-2" x="107.42" y="1.69" width="1.57" height="1.69"/><path class="cls-2" d="M105.62,99.57h1.69s0-1.69,0-1.69h1.69s0-39.35,0-39.35c-.55.03-1.1.05-1.66.05v-.34h-1.72s0,41.33,0,41.33Z"/><path class="cls-2" d="M107.34,58.58c.56,0,1.11-.02,1.66-.05v-.29s-1.66,0-1.66,0v.34Z"/><polygon class="cls-2" points="109 101.25 109 101.25 109 97.88 107.31 97.88 107.31 99.57 109 99.57 109 101.25"/><polygon class="cls-1" points="0 213.34 8.65 213.34 8.65 209.97 3.37 209.97 3.37 3.4 105.62 3.4 105.62 1.69 107.31 1.69 107.31 .03 0 .03 0 213.34"/><rect class="cls-2" x="105.62" y="1.69" width="1.69" height="1.71"/><polygon class="cls-1" points="99.18 213.34 109 213.34 109 101.3 105.62 101.3 105.62 99.57 105.62 209.97 99.18 209.97 99.18 213.34"/><polygon class="cls-2" points="105.62 101.3 109 101.3 109 101.25 107.31 101.25 107.31 99.57 105.62 99.57 105.62 101.3"/><rect class="cls-2" x="107.31" y="99.57" width="1.69" height="1.69"/><polygon class="cls-2" points="122.43 95.24 122.43 94.96 191.5 94.96 191.5 75.55 122.71 75.55 122.71 95.24 122.43 95.24 122.43 94.96 122.43 95.24 122.15 95.24 122.15 74.99 192.06 74.99 192.06 95.52 122.15 95.52 122.15 95.24 122.43 95.24"/><path class="cls-2" d="M22.66,101.51s.45,29.44.45,49.64c0,.36,0,.7,0,1.05,0,8.02-.1,14.85-.1,20.38,0,8.4.24,13.85,1.27,15.8,1.44,2.8,5.01,4.98,10.18,6.43,5.16,1.45,11.9,2.19,19.63,2.19h.5c8.4-.03,15.35-.99,20.47-2.55,5.13-1.55,8.42-3.72,9.54-6.06.56-1.14.94-3.51,1.16-6.61.22-3.1.3-6.93.3-11.07,0-4.43-.09-9.21-.18-13.79-.04-2.19-.06-5.01-.06-8.2,0-17.78.56-47.42.56-47.42h.56s-.03,1.86-.09,4.92c-.16,9.17-.47,29.17-.47,42.5,0,3.19.02,6.01.06,8.19.09,4.59.18,9.37.18,13.8,0,4.14-.08,7.99-.3,11.11-.23,3.13-.59,5.51-1.22,6.81-1.27,2.59-4.69,4.77-9.88,6.36-5.2,1.58-12.19,2.54-20.63,2.57h-.5c-7.76,0-14.54-.73-19.78-2.2-5.23-1.48-8.95-3.68-10.53-6.71-1.14-2.23-1.33-7.63-1.34-16.06,0-5.54.1-12.36.1-20.38,0-.35,0-.7,0-1.05,0-10.09-.11-22.5-.22-32.39-.06-4.94-.11-9.25-.15-12.33-.04-3.08-.07-4.91-.07-4.91h.56Z"/><path class="cls-2" d="M16.64,103.84l-.16.23c-.3-.22-.36-.57-.37-.94.02-1.39,1.05-3.8,2.32-4.77.67-.49,1.65-1.05,2.59-1.5.94-.44,1.81-.78,2.38-.79l.48.16c.17.19.2.4.25.68.04.28.06.62.06.99,0,.67-.07,1.44-.2,2.09-.07.32-.15.62-.26.86-.11.24-.23.45-.47.56-.33.15-1.58.84-2.9,1.49-1.33.65-2.68,1.27-3.46,1.28l-.44-.11.16-.23.16-.23h.02s.1.01.1.01c.51.02,1.93-.58,3.21-1.22,1.31-.65,2.53-1.32,2.92-1.5l.19-.28c.26-.56.41-1.76.4-2.71,0-.35-.02-.67-.05-.9l-.06-.29-.03-.07h0s.02-.03.02-.03l-.02.02h0s.02-.02.02-.02l-.02.02.05-.05-.04.07h-.02s.05-.07.05-.07l-.04.07h-.1c-.35-.02-1.24.29-2.14.72-.91.43-1.87.99-2.5,1.44-1.05.74-2.11,3.18-2.09,4.31,0,.31.08.46.12.48l-.16.23Z"/><path class="cls-2" d="M92.35,103.52l-.16-.23s.13-.17.12-.48c.02-1.13-1.04-3.57-2.09-4.31-.63-.46-1.59-1.01-2.5-1.44-.9-.43-1.79-.74-2.14-.73h-.09s0,.01,0,.01l-.04-.07.05.05-.02.02-.04-.07.05.05-.02-.02h.02s0,.02,0,.02l-.02-.02h.02s-.08.2-.11.43c-.03.23-.05.53-.05.86,0,.63.06,1.38.19,1.97.06.3.13.56.22.74l.19.27c.39.17,1.61.85,2.91,1.5,1.29.64,2.71,1.24,3.21,1.22l.12-.02.16.23.16.23-.43.11c-.79-.02-2.13-.63-3.46-1.28-1.31-.65-2.57-1.34-2.9-1.49-.24-.11-.36-.32-.47-.56-.31-.72-.45-1.93-.45-2.94,0-.37.02-.71.06-.99.05-.28.09-.49.25-.68l.48-.16c.57,0,1.43.34,2.38.79.94.45,1.92,1.01,2.59,1.5,1.28.97,2.3,3.37,2.32,4.76,0,.37-.07.72-.37.94l-.16-.23Z"/><path class="cls-2" d="M22.07,96.56v-1.41s0-.03,0-.03l.97-4.66.28.06h-.28s-.19-8.92-.19-17.4c0-6.18.1-12.11.44-14.27.81-5.02,2.36-9.91,6.6-12.58,2.15-1.35,6.66-2.43,11.52-3.2,4.86-.77,10.04-1.21,13.45-1.21h.02c4.65,0,10.31.26,15.33,1.23,5.02.98,9.42,2.65,11.54,5.6,4.09,5.71,4.24,9.22,4.27,13.08.01,1.29.02,4.91.02,9.17,0,8.51-.02,19.57-.02,19.57h-.28l.28-.04.71,4.72h0s.13,1.06.13,1.06l-.56.07-.13-1.06.28-.03-.28.04-.71-4.74v-.02s0-2.76,0-6.59c0-3.83,0-8.72,0-12.98,0-4.26,0-7.88-.02-9.16-.04-3.85-.15-7.1-4.17-12.75-1.93-2.73-6.22-4.41-11.19-5.37-4.97-.96-10.6-1.22-15.22-1.22h-.02c-3.36,0-8.53.44-13.36,1.21-4.82.76-9.33,1.87-11.31,3.12-4.01,2.53-5.54,7.22-6.34,12.2-.34,2.05-.44,8.01-.44,14.18,0,4.24.05,8.59.09,11.88.05,3.29.09,5.51.09,5.52v.03s-.97,4.63-.97,4.63v1.38h-.56Z"/><path class="cls-2" d="M29.1,187.28l.04-.02c.44-.28,4.77-3.41,4.77-18.39v-.35c-.07-16.32-2.52-55.68-2.76-57.74-.12-1.04-.8-6.39-1.45-11.48-.65-5.09-1.26-9.9-1.26-9.91l-.02-.18.16-.09s8.43-4.92,27.29-4.92c16.62,0,24.54,4.91,24.58,4.94l.16.1-.03.18s-.64,4.34-1.29,9.19c-.65,4.85-1.32,10.24-1.38,12.27-.11,4.14-2.78,52.23-2.78,62.24v.06c0,4.9,1.06,8.58,2.1,11.03.52,1.22,1.04,2.14,1.43,2.75.2.3.36.53.47.68l.17.22-.43.37s-4.3-5.07-4.31-15.04v-.06c0-10.05,2.67-58.13,2.78-62.26.12-4.19,2.68-21.52,2.68-21.53l.28.04-.15.24s-.11-.07-.36-.2c-1.7-.92-9.48-4.65-23.93-4.65-9.38,0-16.14,1.22-20.56,2.43-2.2.61-3.82,1.21-4.89,1.66-.53.23-.92.42-1.18.55-.26.13-.38.2-.38.2l-.14-.24.28-.04s2.46,19.3,2.71,21.39c.25,2.13,2.69,41.43,2.76,57.8v.35c0,16.08-4.99,18.85-5.11,18.91l-.26-.5Z"/><path class="cls-2" d="M31.37,110.47s11.58-2.27,22.63-2.38c.22,0,.44,0,.66,0,10.89,0,23.01,2.5,23.02,2.5l-.11.55s-3.02-.62-7.4-1.25c-4.38-.62-10.11-1.24-15.51-1.24-.22,0-.44,0-.65,0-5.49.05-11.12.64-15.38,1.22-4.26.58-7.13,1.15-7.14,1.15l-.11-.55Z"/><path class="cls-2" d="M22.94,63.47s3.24-9.32,10.43-13.83c3.63-2.26,12.44-3.3,21.2-3.31,4.45,0,8.88.28,12.58.83,3.7.55,6.67,1.36,8.25,2.49,5.73,4.13,10.57,12.67,10.58,12.68l-.49.28s-.3-.53-.84-1.39c-1.62-2.57-5.41-8.11-9.58-11.12-1.41-1.03-4.34-1.85-8-2.39-3.66-.54-8.07-.82-12.5-.82-8.7,0-17.52,1.09-20.9,3.22-3.48,2.18-6.04,5.56-7.72,8.41-.84,1.42-1.46,2.71-1.87,3.64-.41.93-.61,1.49-.61,1.5l-.53-.19Z"/><polyline class="cls-2" points="34.9 48.96 36.58 43.98 37.12 44.16 35.43 49.14"/><polyline class="cls-2" points="73.01 48.91 72 43.68 72.55 43.57 73.57 48.8"/><path class="cls-2" d="M23.11,179.99s.27.5.76,1.28c1.49,2.34,5.1,7.08,9.62,7.8,2.89.47,11.55.68,20.26.68,9.83,0,19.83-.26,21.76-.65,3.31-.65,5.9-2.88,7.67-4.97.88-1.04,1.56-2.04,2.01-2.79.45-.74.68-1.21.68-1.21l.51.24s-3.77,7.88-10.76,9.28c-2.08.4-12,.65-21.87.66-8.74,0-17.36-.2-20.35-.69-6.46-1.09-10.77-9.36-10.79-9.37l.5-.26Z"/><polyline class="cls-2" points="33.52 177.65 75.13 177.65 75.13 178.22 33.52 178.22"/><path class="cls-2" d="M36.2,79.67s-.08-1.71-.08-4.21c0-3.3.14-7.98.79-11.94,1.18-7.23,3.25-12.6,3.25-12.61l.52.2s-.51,1.33-1.17,3.56c-.66,2.23-1.46,5.36-2.05,8.94-.64,3.91-.78,8.57-.78,11.85,0,2.49.08,4.18.08,4.19l-.56.02Z"/><path class="cls-2" d="M72,79.64s.08-1.7.08-4.19c0-3.28-.14-7.94-.78-11.85-.59-3.58-1.39-6.71-2.05-8.94-.66-2.23-1.17-3.55-1.17-3.56l.52-.2s2.07,5.39,3.25,12.61c.65,3.97.79,8.64.79,11.94,0,2.5-.08,4.21-.08,4.21l-.56-.02Z"/></g></svg>