<?xml version="1.0" encoding="UTF-8"?><svg id="Ebene_2" xmlns="http://www.w3.org/2000/svg" viewBox="0 0 246.58 232.23"><defs><style>.cls-1{opacity:.05;}.cls-1,.cls-2{fill:#676869;}.cls-3{fill:#fff;}</style></defs><g id="Ebene_1-2"><polygon class="cls-2" points="12.67 228.88 3.36 228.88 3.36 3.36 243.23 3.36 243.23 228.88 234.36 228.88 234.36 232.23 246.58 232.23 246.58 0 0 0 0 232.23 12.67 232.23 12.67 228.88"/><path class="cls-2" d="M1.68,116.56h6.71v-.89H1.68v.89ZM12.86,116.56h6.71v-.89h-6.71v.89ZM24.05,116.56h6.71v-.89h-6.71v.89ZM35.23,116.56h6.71v-.89h-6.71v.89ZM46.41,116.56h6.71v-.89h-6.71v.89ZM57.6,116.56h6.71v-.89h-6.71v.89ZM68.78,116.56h6.71v-.89h-6.71v.89ZM79.96,116.56h6.71v-.89h-6.71v.89ZM91.15,116.56h6.71v-.89h-6.71v.89ZM102.33,116.56h6.71v-.89h-6.71v.89ZM113.52,116.56h6.71v-.89h-6.71v.89ZM124.7,116.56h6.71v-.89h-6.71v.89ZM135.88,116.56h6.71v-.89h-6.71v.89ZM147.07,116.56h6.71v-.89h-6.71v.89ZM158.25,116.56h6.71v-.89h-6.71v.89ZM169.43,116.56h6.71v-.89h-6.71v.89ZM180.62,116.56h6.71v-.89h-6.71v.89ZM191.8,116.56h6.71v-.89h-6.71v.89ZM202.98,116.56h6.71v-.89h-6.71v.89ZM214.17,116.56h6.71v-.89h-6.71v.89ZM225.35,116.56h6.71v-.89h-6.71v.89ZM236.53,116.56h6.71v-.89h-6.71v.89Z"/><polygon class="cls-2" points="223.79 92.67 224.07 92.67 224.07 8.18 239.98 8.18 239.98 92.39 223.79 92.39 223.79 92.67 224.07 92.67 223.79 92.67 223.79 92.95 240.54 92.95 240.54 7.63 223.51 7.63 223.51 92.95 223.79 92.95 223.79 92.67"/><path class="cls-2" d="M202.14,141.88s.22,4.26.44,11.03c.22,6.77.45,16.05.46,26.09,0,7.97.1,14.76.1,20.26,0,8.35-.24,13.77-1.27,15.71-2.88,5.62-12.29,8.58-27.63,8.57h-.49c-16.72-.06-25.58-3.84-27.84-8.56-.55-1.13-.94-3.49-1.16-6.57-.22-3.08-.3-6.89-.3-11,0-4.41.09-9.15.18-13.71.14-7.14.35-17.65.53-26.37.09-4.36.17-8.28.23-11.1s.09-4.55.09-4.56h-.56s-.57,27.74-.85,42.02c-.09,4.56-.18,9.31-.18,13.72,0,4.12.08,7.94.3,11.04.23,3.11.59,5.48,1.21,6.77,2.51,5.1,11.55,8.79,28.34,8.87h.5c15.38,0,24.99-2.88,28.12-8.87,1.13-2.22,1.32-7.59,1.33-15.97,0-5.5-.09-12.29-.1-20.26-.02-20.1-.9-37.15-.9-37.15l-.56.03Z"/><path class="cls-2" d="M208.12,144.19l.16.23c.3-.22.36-.57.37-.94-.02-1.38-1.04-3.78-2.31-4.74-.67-.49-1.64-1.05-2.57-1.49-.94-.44-1.8-.77-2.36-.78l-.48.16c-.17.19-.2.4-.25.68-.04.28-.06.62-.06.98,0,.67.06,1.43.19,2.07.07.32.15.61.26.85.11.24.23.44.47.56.33.15,1.57.83,2.88,1.48,1.32.64,2.66,1.26,3.44,1.27l.43-.11-.16-.23-.16-.23h-.02s-.1.02-.1.02c-.51.01-1.91-.58-3.19-1.22-1.3-.64-2.51-1.32-2.9-1.49l-.19-.28c-.25-.55-.4-1.75-.4-2.7,0-.35.02-.66.05-.9l.06-.28.03-.08h0s-.02-.03-.02-.03l.02.02h0s-.02-.02-.02-.02l.02.02-.05-.05.04.06h.02s-.05-.06-.05-.06l.04.06h.1c.35-.02,1.23.29,2.13.72.9.43,1.86.98,2.48,1.43,1.05.74,2.1,3.16,2.08,4.29,0,.3-.08.46-.12.48l.16.23Z"/><path class="cls-2" d="M139.54,143.87l.16-.23s-.13-.17-.12-.48c-.02-1.12,1.03-3.55,2.08-4.29.62-.46,1.58-1.01,2.48-1.44.89-.43,1.78-.74,2.13-.73h.09s0,.01,0,.01l.04-.07-.05.05h.02s.04-.05.04-.05l-.05.05.02-.02h-.02s0,.02,0,.02l.02-.02h-.02s.08.2.11.43c.03.23.05.53.05.85,0,.63-.06,1.37-.18,1.96-.06.3-.14.55-.22.74l-.19.27c-.38.17-1.6.85-2.9,1.49-1.28.64-2.69,1.23-3.19,1.22h-.1s-.02-.02-.02-.02l-.16.23-.16.23.43.11c.78-.01,2.12-.63,3.44-1.27,1.3-.64,2.55-1.34,2.88-1.48.24-.11.36-.32.47-.56.31-.71.45-1.92.45-2.93,0-.37-.02-.7-.06-.98-.05-.28-.08-.49-.25-.68l-.48-.16c-.57,0-1.42.34-2.37.78-.93.44-1.91,1-2.57,1.49-1.27.96-2.29,3.36-2.31,4.74,0,.37.07.72.36.94l.16-.23Z"/><path class="cls-2" d="M202.73,136.95v-1.39l.38-4.6h0s.19-4.64.19-9.51c0-3.55-.1-7.21-.44-9.34-.81-4.99-2.34-9.85-6.56-12.51-2.12-1.33-6.12-2.41-10.45-3.18-4.33-.76-8.98-1.21-12.37-1.21h-.01c-4.62,0-9.75.26-14.25,1.22-4.49.97-8.38,2.65-10.46,5.56-4.06,5.68-4.22,9.17-4.25,13-.01,1.28-.02,3.47-.02,5.83,0,4.72.02,10.09.02,10.09v.02l.64,4.67-.12,1.01.55.07.13-1.05v-.04s-.64-4.72-.64-4.72l-.28.04h.28s-.02-5.37-.02-10.08c0-2.36,0-4.55.02-5.82.04-3.83.15-7.06,4.14-12.68,1.94-2.73,5.69-4.39,10.13-5.34,4.43-.96,9.53-1.21,14.13-1.21h.01c3.34,0,7.98.44,12.28,1.2,4.29.76,8.27,1.85,10.25,3.1,3.99,2.51,5.5,7.18,6.31,12.13.33,2.06.43,5.72.43,9.25,0,4.86-.19,9.47-.19,9.48h.28s-.28-.01-.28-.01l-.38,4.61v1.41h.56Z"/><path class="cls-2" d="M194.77,215.21l-.02-.03c-.24-.4-2.46-4.6-2.46-19.29,0-.22,0-.44,0-.66.07-16.22,2.5-42.08,2.74-44.14.12-1.04.8-6.35,1.44-11.41.64-5.06,1.25-9.84,1.25-9.85l.02-.16-.13-.1c-.05-.04-6.41-4.92-25.16-4.91-16.52,0-22.42,4.89-22.47,4.93l-.12.1.02.15s.64,4.31,1.29,9.14c.65,4.82,1.31,10.17,1.37,12.2.11,4.13,2.77,38.73,2.77,48.62v.06c0,4.9-.52,8.82-1.03,11.51-.26,1.35-.51,2.39-.7,3.09-.19.7-.32,1.06-.32,1.06l.53.18s2.06-5.97,2.07-15.85v-.06c0-9.94-2.66-44.55-2.77-48.64-.12-4.17-2.66-21.4-2.66-21.41l-.28.04.18.21.26-.19c1.29-.9,7.48-4.61,21.84-4.61,9.33,0,15.55,1.21,19.42,2.42,1.94.6,3.29,1.2,4.16,1.65.43.22.74.41.95.54.2.13.29.19.29.19l.17-.22-.28-.04s-2.45,19.19-2.7,21.27c-.25,2.1-2.67,27.93-2.75,44.21,0,.22,0,.45,0,.67,0,15.72,2.53,19.55,2.58,19.63l.46-.31Z"/><path class="cls-2" d="M194.83,150.78s-9.52-2.26-20.5-2.37c-.22,0-.43,0-.65,0-10.75,0-20.89,2.49-20.9,2.49l.13.54s.63-.15,1.74-.38c3.34-.7,11.02-2.09,19.03-2.09.21,0,.43,0,.65,0,5.46.05,10.55.64,14.29,1.22,3.73.57,6.09,1.14,6.09,1.14l.13-.54Z"/><path class="cls-2" d="M203.21,116.7s-3.22-9.26-10.37-13.75c-3.6-2.24-11.39-3.28-19.1-3.29-7.86.01-15.57,1.08-18.68,3.3-5.69,4.11-10.51,12.59-10.52,12.61l.49.28s.3-.52.84-1.38c1.61-2.56,5.38-8.07,9.53-11.05,2.84-2.07,10.57-3.21,18.35-3.19,7.65,0,15.43,1.08,18.8,3.2,3.46,2.17,6,5.53,7.67,8.36.83,1.41,1.45,2.69,1.86,3.61.41.92.6,1.49.6,1.49l.53-.18Z"/><polyline class="cls-2" points="191.31 102.27 189.63 97.33 189.1 97.51 190.78 102.46"/><polyline class="cls-2" points="157.43 102.23 158.43 97.02 157.88 96.92 156.88 102.12"/><path class="cls-2" d="M203.03,206.64s-.26.5-.76,1.27c-1.48,2.32-5.07,7.04-9.57,7.76-2.87.47-10.59.67-18.32.67-8.72,0-17.53-.26-19.45-.64-3.29-.65-5.87-2.87-7.63-4.95-.88-1.04-1.55-2.04-2-2.77-.45-.74-.67-1.21-.68-1.21l-.5.24s3.75,7.84,10.69,9.23c2.06.4,10.81.65,19.56.65,7.75,0,15.44-.2,18.41-.68,6.43-1.08,10.71-9.3,10.73-9.32l-.49-.26Z"/><path class="cls-2" d="M192.03,194.95s-9.79-.44-18.07-.44h-.15c-8.31,0-18.18.44-18.19.44l.02.56s2.47-.11,5.97-.22c3.5-.11,8.05-.22,12.19-.22h.15c4.13,0,8.64.11,12.12.22,3.48.11,5.92.22,5.92.22l.03-.56Z"/><rect class="cls-3" x="38.58" y="111.24" width="70.48" height="10.97"/><rect class="cls-1" x="38.58" y="111.24" width="70.48" height="10.97"/><path class="cls-2" d="M108.64,90.07s.04,2.08.09,5.59c.16,10.52.48,33.88.49,52.36,0,1.35,0,2.75,0,4.21,0,12.6-.05,28.97-.31,42.5-.13,6.76-.31,12.82-.57,17.33-.13,2.26-.27,4.13-.44,5.51-.16,1.37-.37,2.29-.52,2.48-.35.53-1.39,1.12-3.04,1.6-4.96,1.47-15.28,2.28-29.04,2.28-.49,0-.97,0-1.46,0-10.26-.04-18.39-.63-24.08-1.45-2.85-.41-5.09-.88-6.68-1.36-1.59-.47-2.53-1.01-2.71-1.36-.03-.03-.12-.34-.18-.81-1.04-7.12-1.68-52.24-1.7-68.65v-1.36c0-9.13.14-23.92.28-36.41.07-6.25.14-11.93.19-16.04.05-4.12.09-6.66.09-6.67h-.56s-.56,40.84-.56,59.12v1.36c.02,8.76.2,25.67.53,40.64.17,7.49.37,14.48.6,19.73.12,2.63.24,4.82.37,6.41.07.8.13,1.45.21,1.94.08.5.13.8.25,1.02.4.62,1.4,1.1,3.03,1.61,4.89,1.48,15.49,2.78,30.92,2.84.49,0,.98,0,1.47,0,9.2,0,16.85-.36,22.43-1.04,2.79-.34,5.07-.76,6.77-1.26,1.7-.51,2.83-1.07,3.35-1.83.27-.43.43-1.32.61-2.73,1.17-9.77,1.32-43.34,1.32-65.4,0-1.46,0-2.86,0-4.21-.02-24.64-.58-57.95-.58-57.95h-.56Z"/><path class="cls-2" d="M115.92,92.91l.16.23c.34-.24.42-.65.42-1.1-.02-1.67-1.28-4.61-2.81-5.76-.81-.59-2.01-1.28-3.15-1.82-1.15-.54-2.2-.94-2.87-.95l-.54.18c-.19.21-.23.46-.29.8-.05.34-.07.75-.07,1.2,0,.82.08,1.75.24,2.53.08.39.18.74.31,1.03.13.28.28.53.55.65.4.18,1.93,1.02,3.53,1.81,1.62.79,3.27,1.54,4.19,1.55l.49-.13-.16-.23-.16-.23-.18.03c-.65.02-2.37-.71-3.95-1.5-1.59-.79-3.08-1.61-3.55-1.82-.04-.01-.16-.13-.26-.37-.32-.7-.5-2.17-.5-3.33,0-.43.02-.82.07-1.11l.08-.36.06-.13-.02-.02.02.02h0s-.02-.02-.02-.02l.02.02.15-.02c.45,0,1.53.37,2.63.9,1.11.53,2.29,1.2,3.06,1.77,1.31.93,2.6,3.9,2.58,5.31,0,.38-.1.59-.18.64l.16.23Z"/><path class="cls-2" d="M31.82,92.52l.16-.23c-.08-.04-.18-.26-.18-.64-.02-1.4,1.27-4.38,2.58-5.31.77-.56,1.94-1.24,3.06-1.77,1.1-.53,2.18-.91,2.63-.9h.13s.02.02.02.02v-.02s0,.02,0,.02h0s.01-.02.01-.02l-.02.02.06.13c.09.27.15.83.15,1.47,0,.78-.08,1.69-.23,2.42-.07.36-.17.69-.27.92-.1.23-.22.36-.26.37-.47.21-1.96,1.04-3.55,1.82-1.58.79-3.29,1.51-3.95,1.5l-.18-.03-.16.23-.16.23.49.13c.93-.02,2.57-.77,4.19-1.56,1.6-.79,3.12-1.63,3.53-1.81.27-.13.41-.36.55-.65.38-.86.54-2.33.55-3.56,0-.45-.02-.86-.07-1.2-.06-.34-.11-.59-.29-.8l-.54-.18c-.67,0-1.72.41-2.87.95-1.14.54-2.33,1.23-3.14,1.82-1.53,1.15-2.78,4.1-2.81,5.76,0,.45.09.85.42,1.1l.16-.23Z"/><path class="cls-2" d="M109.24,84.03v-1.7l.47-5.64h0s.23-5.69.23-11.66c0-4.35-.12-8.84-.54-11.44-.99-6.12-2.87-12.05-8.01-15.3-5.16-3.24-19.64-5.36-27.95-5.37h-.02c-5.66,0-11.95.31-17.46,1.5-5.5,1.19-10.25,3.24-12.79,6.8-4.97,6.96-5.16,11.21-5.19,15.91-.02,1.57-.02,4.26-.02,7.15,0,5.78.02,12.36.02,12.36v.02l.78,5.73-.15,1.25.56.07.15-1.29v-.04s-.78-5.78-.78-5.78l-.28.04h.28s-.02-6.58-.02-12.36c0-2.89,0-5.58.02-7.14.05-4.69.19-8.69,5.09-15.59,2.4-3.37,7.01-5.4,12.45-6.57,5.44-1.17,11.7-1.49,17.34-1.49h.02c8.2-.01,22.75,2.18,27.65,5.29,4.92,3.1,6.78,8.84,7.76,14.92.41,2.53.53,7.02.53,11.35,0,5.95-.23,11.61-.23,11.62h.28s-.28-.01-.28-.01l-.47,5.66v1.72h.56Z"/><path class="cls-2" d="M108.31,217.71s-1.05-.79-2.39-1.59c-1.35-.8-2.97-1.63-4.24-1.72-1.44-.09-20.24-.16-35.55-.16-9.97,0-18.42.03-19.65.11-3.2.23-6.85,3.37-6.88,3.38l.36.42s.22-.19.61-.48c1.15-.87,3.79-2.63,5.94-2.76,1.17-.08,9.66-.11,19.62-.11,15.29,0,34.13.07,35.51.16,1.06.06,2.67.85,3.98,1.64,1.32.79,2.34,1.55,2.34,1.55l.34-.45Z"/><path class="cls-2" d="M99.62,214.53s-.03-2.5-.07-6.59c-.13-12.28-.38-38.89-.38-55.29,0-1.86,0-3.59.01-5.15.09-19.91.32-46.45.62-48.95.3-2.55,3.3-30.29,3.3-30.29l.02-.15-.12-.09s-8.88-7.07-31.87-7.07c-20.25,0-26.44,7.05-26.49,7.12l-.08.09.02.12s.19,1.59.49,4.04c.88,7.37,2.66,22.6,2.77,26.36.14,4.99.76,45.9.76,58.45v.4c0,.27,0,.56,0,.86,0,13.19.29,56.19.29,56.2h.56s-.02-2.69-.04-6.93c-.08-12.71-.24-39.38-.24-49.27,0-.3,0-.59,0-.86v-.4c0-12.56-.62-53.46-.76-58.46-.14-5.09-3.26-30.44-3.26-30.45l-.28.03.21.18.28-.28c1.39-1.29,8.17-6.64,25.78-6.64,11.44,0,19.33,1.75,24.36,3.49,2.51.87,4.31,1.74,5.48,2.39.58.32,1.01.59,1.29.78.28.19.4.29.4.29l.17-.22-.28-.03s-.19,1.73-.47,4.38c-.86,7.92-2.6,24.01-2.83,25.91-.31,2.61-.54,29.07-.63,49.01,0,1.56-.01,3.29-.01,5.15,0,21.87.45,61.89.45,61.89h.56Z"/><path class="cls-2" d="M99.62,98.25s-11.67-3.83-25.15-3.96c-.2,0-.4,0-.6,0-13.26,0-25.81,4.11-25.83,4.11l.17.53s.78-.25,2.15-.64c4.13-1.15,13.64-3.45,23.5-3.45h.6c6.69.07,12.94,1.05,17.51,2.02,2.29.49,4.16.97,5.45,1.32,1.3.36,2.01.6,2.02.6l.17-.53Z"/><path class="cls-2" d="M109.83,59.22s-3.95-11.34-12.69-16.83c-4.39-2.74-13.93-4.02-23.39-4.02-9.63.01-19.08,1.33-22.87,4.03-6.97,5.03-12.87,15.42-12.89,15.44l.49.28s.37-.64,1.03-1.69c1.98-3.14,6.6-9.9,11.7-13.57,3.51-2.55,12.98-3.94,22.54-3.93,9.39,0,18.93,1.32,23.09,3.94,4.26,2.66,7.38,6.8,9.43,10.27,1.02,1.74,1.78,3.31,2.28,4.44.5,1.13.74,1.83.74,1.83l.53-.19Z"/><polyline class="cls-2" points="95.25 41.53 93.19 35.47 92.66 35.64 94.72 41.71"/><polyline class="cls-2" points="53.69 41.44 54.92 35.06 54.38 34.96 53.14 41.34"/><rect class="cls-3" x="146.31" y="114.76" width="53.72" height="3.61"/><rect class="cls-1" x="146.31" y="114.76" width="53.72" height="3.61"/></g></svg>