<svg xmlns="http://www.w3.org/2000/svg" viewBox="0 0 261.94 261.94"><defs><style>.cls-1{fill:#676869;opacity:0.3;}.cls-1,.cls-2{fill-rule:evenodd;}.cls-2,.cls-3,.cls-4{fill:none;stroke:#676869;stroke-miterlimit:10;stroke-width:0.3px;}.cls-4{stroke-dasharray:6.08 6.08;}</style></defs><g id="Ebene_2" data-name="Ebene 2"><g id="Ebene_1-2" data-name="Ebene 1"><polygon class="cls-1" points="258.65 0.15 3.29 0.15 0.15 0.15 0.15 3.29 0.15 258.65 0.15 261.79 3.29 261.79 14.79 261.79 14.79 258.65 3.29 258.65 3.29 3.29 258.65 3.29 258.65 258.65 247.15 258.65 247.15 261.79 258.65 261.79 261.79 261.79 261.79 258.65 261.79 3.29 261.79 0.15 258.65 0.15"/><polygon class="cls-2" points="258.65 0.15 3.29 0.15 0.15 0.15 0.15 3.29 0.15 258.65 0.15 261.79 3.29 261.79 14.79 261.79 14.79 258.65 3.29 258.65 3.29 3.29 258.65 3.29 258.65 258.65 247.15 258.65 247.15 261.79 258.65 261.79 261.79 261.79 261.79 258.65 261.79 3.29 261.79 0.15 258.65 0.15"/><line class="cls-3" x1="3.29" y1="130.97" x2="6.29" y2="130.97"/><line class="cls-4" x1="12.37" y1="130.97" x2="252.49" y2="130.97"/><line class="cls-3" x1="255.53" y1="130.97" x2="258.53" y2="130.97"/><rect class="cls-3" x="14.79" y="257.35" width="232.35" height="4.43"/></g></g></svg>