<?xml version="1.0" encoding="UTF-8"?><svg id="Ebene_2" xmlns="http://www.w3.org/2000/svg" viewBox="0 0 350 73.57"><defs><style>.cls-1{fill:#fff;}.cls-2{fill:#ffca00;}.cls-3{fill:#007757;}</style></defs><g id="Ebene_1-2"><rect class="cls-3" x="0" width="350" height="73.57"/><polygon class="cls-2" points="12.04 31.44 36.11 13.39 48.14 22.45 48.14 40.47 36.11 31.44 24.08 40.46 36.11 49.49 60.17 31.44 60.17 49.49 36.11 67.54 12.05 49.49 12.04 31.44"/><path class="cls-1" d="M85.22,41.1c0,2.09-1.57,3.37-4.34,3.37-.96,0-1.89-.04-2.41-.12v-6.38c.48-.04,1.77-.04,2.09-.04,2.93,0,4.66,1.08,4.66,3.17M84.86,30.01c0,2.05-1.48,3.29-4.54,3.29-.72,0-1.32,0-1.85-.04v-5.94c.76-.04,1.65-.08,2.61-.08,2.61,0,3.78,1.04,3.78,2.77M91.93,41.02c0-2.69-1.61-5.26-4.38-5.98v-.12c2.33-1.04,3.94-3.33,3.94-5.86,0-4.54-3.49-6.83-9.4-6.83-3.33,0-7.39.08-9.88.2v27.07c3.94,0,6.95.08,8.56.08,7.99,0,11.16-4.22,11.16-8.55"/><path class="cls-1" d="M106.79,36.96h-6.02c.16-2.05,1.45-3.46,3.21-3.46s2.89,1.21,2.81,3.46M112.81,38.33c0-5.22-2.65-9.28-8.68-9.28s-9.6,4.54-9.6,10.68c0,7.03,3.61,10.2,10.16,10.2,2.45,0,5.14-.44,7.39-1.37l-.56-4.62c-1.85.84-3.9,1.24-5.86,1.24-3.29,0-4.9-1.53-4.94-4.18h11.89c.12-.96.2-1.84.2-2.69"/><path class="cls-1" d="M127.95,49.37v-4.86c-.64.16-1.53.32-2.25.32-1.53,0-2.05-.68-2.05-2.73v-7.87h4.3v-4.7h-4.34v-7.55l-6.1,1.65v5.9h-3.01v4.7h3.01v9.28c0,4.9,1.49,6.43,6.1,6.43,1.45,0,3.01-.24,4.34-.56"/><path class="cls-1" d="M144.01,39.45c0,3.33-1.53,5.18-3.74,5.18-2.53,0-3.7-1.69-3.7-5.34s1.89-4.98,3.82-4.98c2.53,0,3.62,1.73,3.62,5.14M150.36,39.09c0-6.63-3.49-10-9.56-10s-10.57,4.38-10.57,10.89c0,7.11,3.82,9.96,9.6,9.96s10.52-4.38,10.52-10.85"/><path class="cls-1" d="M171.92,49.49v-14.1c0-3.45-1.45-6.3-5.9-6.3-3.17,0-5.38,1.53-6.62,3.58h-.04c.2-.96.24-2.41.24-3.13h-5.7v19.96h6.1v-9.68c0-2.93,1.81-5.58,3.98-5.58,1.4,0,1.85.96,1.85,2.57v12.69h6.1Z"/><polygon class="cls-2" points="203.97 49.49 194.58 35.44 203.53 22.38 195.94 22.38 188.51 34.35 188.51 22.38 182.24 22.38 182.24 49.49 188.51 49.49 188.51 36.76 195.86 49.49 203.97 49.49"/><path class="cls-2" d="M216.13,36.96h-6.02c.16-2.05,1.45-3.46,3.21-3.46s2.89,1.21,2.81,3.46M222.16,38.33c0-5.22-2.65-9.28-8.68-9.28s-9.6,4.54-9.6,10.68c0,7.03,3.61,10.2,10.16,10.2,2.45,0,5.14-.44,7.39-1.37l-.56-4.62c-1.85.84-3.9,1.24-5.86,1.24-3.29,0-4.9-1.53-4.94-4.18h11.89c.12-.96.2-1.84.2-2.69"/><path class="cls-2" d="M255.61,49.49v-13.7c0-4.5-2.13-6.71-6.02-6.71-3.05,0-5.26,1.65-6.3,3.62-.64-2.13-2.41-3.62-5.46-3.62-2.81,0-5.14,1.4-6.39,3.62h-.04c.16-1.09.24-2.45.24-3.17h-5.74v19.96h6.1v-9.6c0-3.17,1.97-5.66,3.94-5.66,1.45,0,1.81,1.12,1.81,2.73v12.53h6.02v-9.6c0-3.29,2.05-5.66,3.9-5.66,1.4,0,1.81,1.05,1.81,2.73v12.53h6.14Z"/><path class="cls-2" d="M290.06,49.49v-13.7c0-4.5-2.13-6.71-6.02-6.71-3.05,0-5.26,1.65-6.3,3.62-.64-2.13-2.41-3.62-5.46-3.62-2.81,0-5.14,1.4-6.39,3.62h-.04c.16-1.09.24-2.45.24-3.17h-5.74v19.96h6.1v-9.6c0-3.17,1.97-5.66,3.94-5.66,1.45,0,1.81,1.12,1.81,2.73v12.53h6.02v-9.6c0-3.29,2.05-5.66,3.9-5.66,1.41,0,1.81,1.05,1.81,2.73v12.53h6.15Z"/><rect class="cls-2" x="294.78" y="20.17" width="6.1" height="29.32"/><path class="cls-2" d="M316.75,36.96h-6.02c.16-2.05,1.44-3.46,3.21-3.46s2.89,1.21,2.81,3.46M322.77,38.33c0-5.22-2.65-9.28-8.68-9.28s-9.6,4.54-9.6,10.68c0,7.03,3.61,10.2,10.16,10.2,2.45,0,5.14-.44,7.39-1.37l-.56-4.62c-1.85.84-3.89,1.24-5.86,1.24-3.29,0-4.9-1.53-4.94-4.18h11.89c.12-.96.2-1.84.2-2.69"/><path class="cls-2" d="M337.99,29.05c-3.05-.2-4.94,1.65-5.98,4.02h-.08c.2-1.24.28-2.69.28-3.53h-5.7v19.96h6.1v-8.23c0-4.98,1.77-6.91,5.1-6.14l.28-6.06Z"/></g></svg>