<svg xmlns="http://www.w3.org/2000/svg" viewBox="0 0 240 66.37"><g data-name="Ebene 2"><g data-name="Ebene 1"><path d="M0 66.37h7.08V0H0v66.37z" fill="#ea6a1f"/><path d="M36.29 66.37h9.33L18.09 33.18 45.62 0h-9.33l-27 33.18 27 33.19zM72.78 30.2l-5.73-7.11v7.11h-3.69V14.75H67V21h.06l5.52-6.28h4.67l-6.65 7.11 7 8.34zM79.31 30.2V14.75h3.75V30.2zM86.68 30.2V14.75h10.39v3.14h-6.78v2.92h6.41v3h-6.41V27h7.18v3.2zM110.19 30.2L104 20.1h-.06l.06 10.1h-3.62V14.75h4.25l6.2 10.08h.07l-.09-10.08h3.62V30.2zM117.3 30.2V27l7.35-9.07h-7.17v-3.18h11.85v3L121.8 27h7.68v3.2zM132.34 30.2V14.75h3.75v12.19h6v3.26zM144.25 30.2V14.75h10.38v3.14h-6.78v2.92h6.42v3h-6.42V27H155v3.2zM166.2 30.2l-3.35-6.13h-1.27v6.13h-3.64V14.75h5.89A10.28 10.28 0 01166 15a5.76 5.76 0 011.9.78 3.87 3.87 0 011.34 1.44 4.46 4.46 0 01.51 2.23 4.18 4.18 0 01-.85 2.64 4.65 4.65 0 01-2.36 1.52l4 6.62zm-.15-10.72a1.55 1.55 0 00-.23-.88 1.58 1.58 0 00-.59-.53 3 3 0 00-.81-.25 6.58 6.58 0 00-.87-.06h-2v3.6h1.78a5 5 0 00.94-.08 2.93 2.93 0 00.88-.27 1.69 1.69 0 00.65-.57 1.67 1.67 0 00.25-.96zM75.4 46.72a4.08 4.08 0 01-.5 2.12 3.91 3.91 0 01-1.32 1.39 5.81 5.81 0 01-1.9.75 10.31 10.31 0 01-2.17.23h-6.15V35.76h6.15a9.8 9.8 0 011.84.18 5.59 5.59 0 011.7.64 3.4 3.4 0 011.72 3.15 3.24 3.24 0 01-.69 2.13 3.94 3.94 0 01-1.84 1.21 4.24 4.24 0 011.23.41 3.64 3.64 0 011 .75 3.35 3.35 0 01.67 1.07 3.57 3.57 0 01.26 1.42zm-4.23-6.49a1.23 1.23 0 00-.6-1.14 3.51 3.51 0 00-1.78-.36H67v3.18h2a2.75 2.75 0 001.63-.42 1.49 1.49 0 00.54-1.26zm.5 6.13A1.34 1.34 0 0071 45a4.14 4.14 0 00-2-.34h-2v3.54h2.1a5.67 5.67 0 00.9-.08 2.82 2.82 0 00.85-.27 1.59 1.59 0 00.62-.56 1.65 1.65 0 00.2-.93zM78.31 51.21V35.76h10.38v3.14h-6.78v2.92h6.41v3h-6.41V48h7.18v3.19zM98.6 38.94v12.27h-3.73V38.94H90.5v-3.18H103v3.18zM120.55 43.42a8.65 8.65 0 01-.63 3.35 7.54 7.54 0 01-4.43 4.23 9.83 9.83 0 01-6.71 0 7.56 7.56 0 01-4.42-4.26 8.65 8.65 0 01-.63-3.35 8.55 8.55 0 01.63-3.35 7.28 7.28 0 011.76-2.54 7.62 7.62 0 012.66-1.61 10 10 0 016.71 0 7.57 7.57 0 012.67 1.61 7.28 7.28 0 011.76 2.54 8.55 8.55 0 01.63 3.38zm-4 0a5.27 5.27 0 00-.33-1.88 4.53 4.53 0 00-.9-1.49 4.21 4.21 0 00-1.4-1 4.42 4.42 0 00-1.8-.37 4.37 4.37 0 00-1.79.37 4.17 4.17 0 00-1.39 1 4.1 4.1 0 00-.91 1.49 5.75 5.75 0 000 3.81 4.53 4.53 0 00.91 1.52 4.06 4.06 0 001.38 1 4.4 4.4 0 005-1 4.53 4.53 0 00.91-1.52 5.47 5.47 0 00.33-1.93zM133.27 51.21l-6.21-10.1H127l.09 10.1h-3.62V35.76h4.25l6.2 10.08h.08l-.09-10.08h3.63v15.45zM147.74 38.94v12.27H144V38.94h-4.36v-3.18h12.46v3.18zM154.24 51.21V35.76h10.39v3.14h-6.78v2.92h6.41v3h-6.41V48H165v3.19zM179 50.94a8.39 8.39 0 01-3.47.68 8.93 8.93 0 01-3.31-.59 7.89 7.89 0 01-2.63-1.66 8 8 0 01-1.74-2.59 9.1 9.1 0 010-6.68 7.41 7.41 0 011.78-2.56 7.58 7.58 0 012.66-1.62 9.42 9.42 0 016.51 0 6.35 6.35 0 012.57 1.69l-2.53 2.53a3.27 3.27 0 00-1.38-1.07 4.77 4.77 0 00-1.74-.34 4.38 4.38 0 00-1.8.36 4.18 4.18 0 00-1.41 1 4.56 4.56 0 00-.92 1.5 5.42 5.42 0 00-.33 1.88 5.6 5.6 0 00.33 1.92 4.29 4.29 0 00.91 1.49 4.09 4.09 0 001.38 1 4.47 4.47 0 001.77.35 4.11 4.11 0 001.94-.44 3.91 3.91 0 001.34-1.13l2.59 2.44a7.23 7.23 0 01-2.52 1.84zM193.31 51.21v-6.46h-6v6.46h-3.73V35.76h3.73v5.85h6v-5.85H197v15.45zM210.48 51.21l-6.22-10.1h-.07l.09 10.1h-3.62V35.76h4.25l6.2 10.08h.07l-.09-10.08h3.62v15.45zM218.33 51.21V35.76h3.76v15.45zM235.13 51.21l-5.73-7.11h-.05v7.11h-3.64V35.76h3.64v6.29h.07l5.52-6.29h4.67L233 42.87l7 8.34z" fill="#666767"/></g></g></svg>