<svg xmlns="http://www.w3.org/2000/svg" viewBox="0 0 261.05 261.94"><defs><style>.cls-1{fill:#676869;fill-rule:evenodd;opacity:0.3;}.cls-2{fill:none;stroke:#676869;stroke-miterlimit:10;stroke-width:0.3px;}.cls-3{fill:#000001;}</style></defs><g id="Ebene_2" data-name="Ebene 2"><g id="Ebene_1-2" data-name="Ebene 1"><polyline class="cls-1" points="3.11 4.03 3.11 4.03 0.15 0.15 0.15 261.79 3.11 259.2 3.11 4.03"/><polyline class="cls-1" points="138.18 261.79 133.93 261.79 133.93 259.2 138.18 259.2 138.18 261.79"/><polyline class="cls-1" points="126.9 261.79 122.84 261.79 122.84 259.2 126.9 259.2 126.9 261.79"/><polyline class="cls-1" points="0.15 261.79 7.36 261.79 7.36 259.2 3.11 259.2 0.15 261.79"/><polyline class="cls-1" points="260.86 0.15 260.86 0.15 257.72 4.03 257.72 259.2 253.66 259.2 253.66 261.79 260.86 261.79 260.86 0.15"/><polyline class="cls-1" points="133.93 4.03 257.72 4.03 260.86 0.15 130.97 0.15 133.93 4.03"/><polyline class="cls-1" points="126.9 4.03 3.11 4.03 0.15 0.15 130.04 0.15 126.9 4.03"/><polygon class="cls-1" points="130.97 0.15 130.97 26.39 130.97 239.98 130.97 240.39 130.97 261.79 133.93 261.79 133.93 240.39 133.93 239.98 133.93 4.03 130.97 0.15"/><polygon class="cls-1" points="126.9 26.39 126.9 239.98 126.9 240.39 126.9 261.79 130.04 261.79 130.04 240.39 130.04 239.98 130.04 0.15 126.9 4.03 126.9 26.39"/><line class="cls-2" x1="7.36" y1="261.79" x2="123.02" y2="261.79"/><polyline class="cls-2" points="3.11 4.03 3.11 17.7 3.29 17.7"/><polyline class="cls-2" points="3.11 16.78 3.11 259.2 3.29 259.2"/><line class="cls-2" x1="3.11" y1="4.03" x2="127.09" y2="4.03"/><line class="cls-2" x1="117.3" y1="4.03" x2="127.09" y2="4.03"/><line class="cls-2" x1="3.11" y1="259.2" x2="7.54" y2="259.2"/><line class="cls-2" x1="0.15" y1="261.79" x2="7.54" y2="261.79"/><polyline class="cls-2" points="130.04 261.79 122.84 261.79 123.02 261.79"/><polyline class="cls-2" points="122.84 257.35 122.84 261.79 123.02 261.79"/><polyline class="cls-2" points="7.36 257.35 7.36 261.79 7.54 261.79"/><line class="cls-2" x1="7.36" y1="257.35" x2="123.02" y2="257.35"/><line class="cls-2" x1="122.84" y1="259.2" x2="127.09" y2="259.2"/><path class="cls-2" d="M122.28,246.45h.56m-11.64,0h5.54m-16.63,0h5.54m-16.62,0h5.54m-16.63,0h5.54m-16.63,0H72.4m-16.63,0h5.54m-16.63,0h5.54m-16.63,0h5.55m-16.63,0h5.54m-16.63,0H17m-16.63,0H5.88"/><path class="cls-2" d="M122.1,15.49h.74m-11.83,0h5.55m-16.63,0h5.54m-16.63,0h5.54m-16.63,0H83.3m-16.63,0h5.54m-16.63,0h5.54m-16.62,0H50m-16.63,0H39m-16.63,0h5.55m-16.63,0h5.54m-16.63,0H5.69"/><line class="cls-2" x1="3.11" y1="259.2" x2="7.36" y2="259.2"/><line class="cls-2" x1="7.36" y1="259.2" x2="7.36" y2="261.79"/><line class="cls-2" x1="7.36" y1="261.79" x2="0.15" y2="261.79"/><line class="cls-2" x1="0.15" y1="261.79" x2="0.15" y2="0.15"/><line class="cls-2" x1="0.15" y1="0.15" x2="130.04" y2="0.15"/><line class="cls-2" x1="126.9" y1="4.03" x2="126.9" y2="21.95"/><line class="cls-2" x1="126.9" y1="259.2" x2="122.84" y2="259.2"/><line class="cls-2" x1="122.84" y1="259.2" x2="122.84" y2="261.79"/><line class="cls-2" x1="122.84" y1="261.79" x2="130.04" y2="261.79"/><line class="cls-2" x1="130.04" y1="21.95" x2="130.04" y2="0.15"/><rect class="cls-3" x="130.04" y="0.15" width="0.18" height="0.18"/><rect class="cls-3" x="130.04" y="0.15" width="0.18" height="0.18"/><rect class="cls-3" x="130.04" y="0.15" width="0.18" height="0.18"/><polyline class="cls-2" points="130.04 84.78 130.04 261.79 130.23 261.79"/><line class="cls-2" x1="130.04" y1="261.79" x2="130.04" y2="84.78"/><rect class="cls-3" x="130.04" y="0.15" width="0.18" height="0.18"/><polyline class="cls-2" points="130.04 0.15 130.04 21.95 130.23 21.95"/><line class="cls-2" x1="130.04" y1="85.88" x2="130.04" y2="0.15"/><line class="cls-2" x1="126.9" y1="21.95" x2="126.9" y2="4.03"/><polyline class="cls-2" points="109.17 0.15 43.2 0.15 43.39 0.15"/><polyline class="cls-2" points="109.17 261.79 43.2 261.79 43.39 261.79"/><polyline class="cls-1" points="3.11 259.2 7.36 259.2 3.11 259.2"/><polyline class="cls-2" points="3.11 259.2 7.36 259.2 3.11 259.2"/><rect class="cls-3" x="126.9" y="259.2" width="0.18" height="0.18"/><polyline class="cls-2" points="130.97 0.15 130.97 261.79 131.15 261.79"/><line class="cls-2" x1="138.17" y1="261.79" x2="253.84" y2="261.79"/><polyline class="cls-2" points="133.93 4.03 133.93 21.95 134.11 21.95"/><polyline class="cls-2" points="257.72 84.78 257.72 259.2 257.91 259.2"/><line class="cls-2" x1="133.93" y1="4.03" x2="257.91" y2="4.03"/><line class="cls-2" x1="248.11" y1="4.03" x2="257.91" y2="4.03"/><line class="cls-2" x1="133.93" y1="259.2" x2="138.36" y2="259.2"/><line class="cls-2" x1="130.97" y1="261.79" x2="138.36" y2="261.79"/><polyline class="cls-2" points="260.86 261.79 253.66 261.79 253.84 261.79"/><polyline class="cls-2" points="253.66 257.35 253.66 261.79 253.84 261.79"/><polyline class="cls-2" points="138.18 257.35 138.18 261.79 138.36 261.79"/><line class="cls-2" x1="138.17" y1="257.35" x2="253.84" y2="257.35"/><line class="cls-2" x1="253.66" y1="259.2" x2="257.91" y2="259.2"/><path class="cls-2" d="M260.12,246.45h.74m-11.82,0h5.54m-16.63,0h5.54m-16.62,0h5.54m-16.63,0h5.54m-16.63,0h5.55m-16.63,0h5.54m-16.63,0h5.54m-16.63,0H177m-16.63,0h5.54m-16.63,0h5.54m-16.63,0h5.55"/><path class="cls-2" d="M260.12,15.49h.74m-11.82,0h5.54m-16.63,0h5.54m-16.62,0h5.54m-16.63,0h5.54m-16.63,0h5.55m-16.63,0h5.54m-16.63,0h5.54m-16.63,0H177m-16.63,0h5.54m-16.63,0h5.54m-16.63,0h5.55"/><line class="cls-2" x1="133.93" y1="259.2" x2="138.17" y2="259.2"/><line class="cls-2" x1="138.17" y1="259.2" x2="138.17" y2="261.79"/><line class="cls-2" x1="138.17" y1="261.79" x2="130.97" y2="261.79"/><line class="cls-2" x1="130.97" y1="261.79" x2="130.97" y2="0.15"/><line class="cls-2" x1="130.97" y1="0.15" x2="260.86" y2="0.15"/><line class="cls-2" x1="257.72" y1="4.03" x2="257.72" y2="21.95"/><line class="cls-2" x1="257.72" y1="259.2" x2="253.66" y2="259.2"/><line class="cls-2" x1="253.66" y1="259.2" x2="253.66" y2="261.79"/><line class="cls-2" x1="253.66" y1="261.79" x2="260.86" y2="261.79"/><line class="cls-2" x1="260.86" y1="21.95" x2="260.86" y2="0.15"/><rect class="cls-3" x="260.86" y="0.15" width="0.18" height="0.18"/><rect class="cls-3" x="260.86" y="0.15" width="0.18" height="0.18"/><rect class="cls-3" x="260.86" y="0.15" width="0.18" height="0.18"/><line class="cls-2" x1="257.72" y1="84.78" x2="257.72" y2="259.2"/><polyline class="cls-2" points="260.86 84.78 260.86 261.79 261.05 261.79"/><line class="cls-2" x1="260.86" y1="261.79" x2="260.86" y2="84.78"/><rect class="cls-3" x="260.86" y="0.15" width="0.18" height="0.18"/><polyline class="cls-2" points="260.86 0.15 260.86 21.95 261.05 21.95"/><line class="cls-2" x1="260.86" y1="85.88" x2="260.86" y2="0.15"/><line class="cls-2" x1="257.72" y1="84.78" x2="257.72" y2="4.03"/><polyline class="cls-2" points="239.98 0.15 174.02 0.15 174.21 0.15"/><polyline class="cls-2" points="239.98 261.79 174.02 261.79 174.21 261.79"/><polyline class="cls-1" points="133.93 259.2 138.18 259.2 133.93 259.2"/><polyline class="cls-2" points="133.93 259.2 138.18 259.2 133.93 259.2"/><rect class="cls-3" x="257.72" y="259.2" width="0.18" height="0.18"/><path class="cls-2" d="M138.17,237.21v5.55m0-16.63v5.54m0-16.63v5.54m0-16.63v5.55m0-16.63v5.54m0-16.63v5.54m0-16.63v5.55m0-16.63v5.54m0-16.63v5.55m0-16.63V143m0-16.63v5.54m0-16.63v5.55m0-16.63v5.54m0-16.63v5.54m0-16.63v5.55m0-16.63v5.54m0-16.63v5.54m0-16.62v5.54m0-16.63V43.2m0-16.63v5.55m0-16.63V21"/><path class="cls-2" d="M122.84,237.21v5.55m0-16.63v5.54m0-16.63v5.54m0-16.63v5.55m0-16.63v5.54m0-16.63v5.54m0-16.63v5.55m0-16.63v5.54m0-16.63v5.55m0-16.63V143m0-16.63v5.54m0-16.63v5.55m0-16.63v5.54m0-16.63v5.54m0-16.63v5.55m0-16.63v5.54m0-16.63v5.54m0-16.62v5.54m0-16.63V43.2m0-16.63v5.55m0-16.63V21"/><polyline class="cls-2" points="126.9 21.95 126.9 26.39 126.9 239.98 126.9 259.2 127.09 259.2"/><polyline class="cls-2" points="133.93 21.95 133.93 26.39 133.93 239.98 133.93 259.2 134.11 259.2"/></g></g></svg>